IKResults
version=1
nRows=10
nColumns=40
inDegrees=yes

Units are S.I. units (second, meters, Newtons, ...)
Angles are in degrees.

endheader
time	pelvis_tilt	pelvis_list	pelvis_rotation	pelvis_tx	pelvis_ty	pelvis_tz	hip_flexion_r	hip_adduction_r	hip_rotation_r	knee_angle_r	knee_angle_r_beta	ankle_angle_r	subtalar_angle_r	mtp_angle_r	hip_flexion_l	hip_adduction_l	hip_rotation_l	knee_angle_l	knee_angle_l_beta	ankle_angle_l	subtalar_angle_l	mtp_angle_l	lumbar_extension	lumbar_bending	lumbar_rotation	arm_flex_r	arm_add_r	arm_rot_r	elbow_flex_r	pro_sup_r	wrist_flex_r	wrist_dev_r	arm_flex_l	arm_add_l	arm_rot_l	elbow_flex_l	pro_sup_l	wrist_flex_l	wrist_dev_l
      0.00000000	     18.31526975	     -0.55795488	      5.07675571	     -1.29423454	      0.96053429	     -1.46251509	      0.04384436	     -0.04510259	    -11.74119354	    -44.49361922	     -0.77656015	      6.32051595	    -16.27966244	     16.92157160	    -21.26240465	      2.54299149	      9.50310783	    -13.07963685	     -0.22828273	      9.65259916	     -0.02809674	     -5.29299698	    -23.62061024	      2.73492634	     -4.78277692	     -7.16753433	     -9.34597270	     -4.08750969	     18.07714060	     89.95437384	      0.00000000	      0.00000000	     12.97073993	     12.22925245	      1.44762118	     26.33679867	     89.95437384	      0.00000000	      0.00000000
      0.01000000	     18.29712425	     -0.80016676	      5.20906718	     -1.28571646	      0.96005231	     -1.46380980	      0.39799732	      0.09929019	    -12.45168861	    -42.05644232	     -0.73402339	      6.50136136	    -16.36128119	     16.93564433	    -21.80216590	      2.76570244	      9.27449841	    -13.08568478	     -0.22838828	     10.07520979	      0.15285592	     -5.31451316	    -23.66087155	      3.02087656	     -5.00988348	     -7.60024465	     -9.25024834	     -4.12259100	     17.90349899	     89.95437384	      0.00000000	      0.00000000	     13.82323950	     12.34215259	      1.80854006	     27.26613409	     89.95437384	      0.00000000	      0.00000000
      0.02000000	     17.82759758	     -0.67725293	      4.98855672	     -1.27725679	      0.95862938	     -1.46490802	      1.47315992	     -0.37599027	    -13.15732082	    -40.12739474	     -0.70035516	      6.63267604	    -16.10539650	     16.74836440	    -21.83272288	      2.45700523	      9.46775235	    -13.21277531	     -0.23060643	     10.35912760	      0.22166046	     -5.26351385	    -23.23815423	      2.79145362	     -5.05026630	     -8.12065603	     -9.16726400	     -4.08041035	     17.88645147	     89.95437384	      0.00000000	      0.00000000	     14.64555663	     12.46485578	      2.02521691	     28.15902159	     89.95437384	      0.00000000	      0.00000000
      0.03000000	     18.17684354	     -1.13049581	      5.55873601	     -1.26863213	      0.95855805	     -1.46636688	      1.03863642	      0.15600975	    -14.16998573	    -37.02622445	     -0.64622953	      6.32998463	    -15.79848487	     16.80965711	    -22.76075970	      3.11244030	      8.93261067	    -13.16044452	     -0.22969309	     10.83682261	      0.52180021	     -5.32776659	    -23.66691069	      3.45985377	     -5.68485417	     -8.45954174	     -9.08408970	     -4.12966068	     17.91464460	     89.95437384	      0.00000000	      0.00000000	     15.26092066	     12.59111786	      2.70294829	     29.49478682	     89.95437384	      0.00000000	      0.00000000
      0.04000000	     18.02914930	     -1.20525004	      5.57713785	     -1.25983541	      0.95744717	     -1.46704646	      1.44879405	      0.07704386	    -15.10565169	    -34.56015269	     -0.60318845	      5.95983482	    -15.14277216	     16.55451516	    -23.19355370	      3.17447770	      8.83148925	    -13.20853257	     -0.23053238	     11.21249433	      0.69086591	     -5.37640851	    -23.54696351	      3.48135734	     -5.85879477	     -8.94250737	     -8.95274458	     -4.12305438	     17.97826788	     89.95437384	      0.00000000	      0.00000000	     15.85063718	     12.78241764	      2.96116534	     30.71890516	     89.95437384	      0.00000000	      0.00000000
      0.05000000	     17.92127019	     -1.23976289	      5.70646153	     -1.25105639	      0.95626736	     -1.46800059	      1.69514860	     -0.09044548	    -16.50676018	    -31.90235884	     -0.55680120	      5.80750992	    -14.12111156	     16.13509266	    -23.66446173	      3.23412706	      8.65906463	    -13.23430232	     -0.23098215	     11.48553860	      0.78603153	     -5.44490197	    -23.48920650	      3.52849656	     -6.15687022	     -9.40038330	     -8.84153041	     -4.21741357	     18.12927527	     89.95437384	      0.00000000	      0.00000000	     16.40313360	     12.93373866	      3.20629856	     31.99528359	     89.95437384	      0.00000000	      0.00000000
      0.06000000	     17.81389329	     -1.29122919	      5.81867149	     -1.24225457	      0.95502308	     -1.46869049	      1.92294659	     -0.18263452	    -17.80553059	    -29.24606354	     -0.51044010	      5.29576877	    -12.77162361	     15.52594131	    -24.13275784	      3.33255907	      8.55171673	    -13.26453004	     -0.23150972	     11.73433907	      0.71504990	     -5.52738521	    -23.42924566	      3.57753655	     -6.44732861	     -9.82289686	     -8.72257298	     -4.40416614	     18.26524281	     89.95437384	      0.00000000	      0.00000000	     16.88798050	     13.13665577	      3.38114318	     33.31927143	     89.95437384	      0.00000000	      0.00000000
      0.07000000	     17.67068482	     -1.38111836	      5.98805136	     -1.23327634	      0.95361653	     -1.46927754	      2.13728148	     -0.23945446	    -19.31799043	    -26.64188520	     -0.46498862	      4.80707406	    -10.87895551	     14.51686357	    -24.51730249	      3.53698805	      8.58363635	    -13.39495794	     -0.23378612	     12.04600182	      0.66015525	     -5.67565024	    -23.31061118	      3.66713259	     -6.72346520	    -10.26960356	     -8.60657427	     -4.59583097	     18.44368839	     89.95437384	      0.00000000	      0.00000000	     17.32733384	     13.31970342	      3.54013659	     34.66726070	     89.95437384	      0.00000000	      0.00000000
      0.08000000	     17.32617174	     -1.42626238	      5.85494363	     -1.22480561	      0.95193416	     -1.46948021	      2.71000728	     -0.31263876	    -20.39086365	    -24.24959814	     -0.42323533	      4.08864089	     -8.96254260	     13.81072587	    -24.64514148	      3.52985524	      8.63291055	    -13.62054075	     -0.23772328	     12.51895502	      0.63949640	     -5.74101192	    -23.07561659	      3.59959368	     -6.80071148	    -10.49747099	     -8.50866110	     -4.80670101	     18.49298611	     89.95437384	      0.00000000	      0.00000000	     17.76319365	     13.51013378	      3.70022979	     35.99658640	     89.95437384	      0.00000000	      0.00000000
      0.09000000	     17.33723723	     -1.31165383	      6.10097768	     -1.21549614	      0.95057814	     -1.47019825	      2.71952345	     -0.78385810	    -23.05412134	    -21.89163478	     -0.38208111	      2.35622748	     -6.30647424	      0.17864233	    -25.23794612	      3.56391830	      8.39489890	    -13.68270214	     -0.23880820	     12.57847868	      0.76442567	     -7.47284410	    -23.09186286	      3.51882628	     -7.18818871	    -10.98218461	     -8.43108447	     -4.60717126	     18.74792822	     89.95437384	      0.00000000	      0.00000000	     18.11672151	     13.73128544	      3.73535000	     37.33524334	     89.95437384	      0.00000000	      0.00000000
